<?xml version="1.0" encoding="utf-8"?>
<!-- Generator: Adobe Illustrator 26.0.1, SVG Export Plug-In . SVG Version: 6.00 Build 0)  -->
<svg version="1.1" id="Layer_1" xmlns="http://www.w3.org/2000/svg" xmlns:xlink="http://www.w3.org/1999/xlink" x="0px" y="0px"
	 viewBox="0 0 55.06 54.81" style="enable-background:new 0 0 55.06 54.81;" xml:space="preserve">
<path style="fill:#FFFFFF;" d="M51.62,0H10.9C7.75,0,5.2,2.56,5.2,5.71v43.4c0,3.15,2.55,5.7,5.7,5.7h40.72
	c1.91,0,3.45-1.54,3.45-3.44V3.45C55.07,1.55,53.53,0,51.62,0z M29.96,8.51c4.66,0,8.43,3.78,8.43,8.43c0,4.65-3.77,8.43-8.43,8.43
	c-4.65,0-8.42-3.78-8.42-8.43C21.54,12.29,25.31,8.51,29.96,8.51z M46.13,43.66H13.45c-0.11-0.6-0.17-1.21-0.17-1.83
	c0-0.86,0.11-1.7,0.32-2.51c1.48-5.96,8.17-10.47,16.19-10.47c8.02,0,14.71,4.51,16.19,10.47c0.21,0.81,0.32,1.65,0.32,2.51
	C46.3,42.45,46.24,43.06,46.13,43.66z"/>
<rect y="13.7" style="fill:#FFFFFF;" width="5.19" height="5.96"/>
<rect y="24.43" style="fill:#FFFFFF;" width="5.19" height="5.96"/>
<rect y="35.15" style="fill:#FFFFFF;" width="5.19" height="5.96"/>
</svg>
