<?xml version="1.0" encoding="utf-8"?>
<!-- Generator: Adobe Illustrator 26.0.1, SVG Export Plug-In . SVG Version: 6.00 Build 0)  -->
<svg version="1.1" id="Layer_1" xmlns="http://www.w3.org/2000/svg" xmlns:xlink="http://www.w3.org/1999/xlink" x="0px" y="0px"
	 viewBox="0 0 44.81 56.04" style="enable-background:new 0 0 44.81 56.04;" xml:space="preserve">
<path style="fill:none;stroke:#7F7D7A;stroke-width:6;stroke-miterlimit:10;" d="M36.89,52.89H7.96c-2.59,0-4.68-2.1-4.68-4.68V8.04
	c0-2.59,2.1-4.68,4.68-4.68h28.94c2.59,0,4.68,2.1,4.68,4.68v40.17C41.57,50.8,39.48,52.89,36.89,52.89z"/>
<path style="fill:#7F7D7A;" d="M31.27,14.49H13.9c-1.35,0-2.44-1.09-2.44-2.44v-0.43c0-1.35,1.09-2.44,2.44-2.44h17.36
	c1.35,0,2.44,1.09,2.44,2.44v0.43C33.7,13.4,32.61,14.49,31.27,14.49z"/>
<path style="fill:#7F7D7A;" d="M31.27,25.63H13.9c-1.35,0-2.44-1.09-2.44-2.44v-0.43c0-1.35,1.09-2.44,2.44-2.44h17.36
	c1.35,0,2.44,1.09,2.44,2.44v0.43C33.7,24.54,32.61,25.63,31.27,25.63z"/>
<path style="fill:#7F7D7A;" d="M31.27,36.77H13.9c-1.35,0-2.44-1.09-2.44-2.44V33.9c0-1.35,1.09-2.44,2.44-2.44h17.36
	c1.35,0,2.44,1.09,2.44,2.44v0.43C33.7,35.68,32.61,36.77,31.27,36.77z"/>
<path style="fill:#7F7D7A;" d="M21.05,47.31h-7.5c-1.35,0-2.44-1.09-2.44-2.44v-0.43c0-1.35,1.09-2.44,2.44-2.44h7.5
	c1.35,0,2.44,1.09,2.44,2.44v0.43C23.49,46.22,22.4,47.31,21.05,47.31z"/>
</svg>
